# MagicaVoxel @ Ephtracy

# group
o 

# material
mtllib wheel-5.mtl
usemtl palette

# normals
vn -1 0 0
vn 1 0 0
vn 0 0 1
vn 0 0 -1
vn 0 -1 0
vn 0 1 0

# texcoords
vt 0.318359 0.5
vt 0.958984 0.5
vt 0.978516 0.5
vt 0.990234 0.5

# verts
v -1.4 -0.1 2.9
v -1.4 -0.1 -3.6
v -1.4 0.2 2.9
v -1.4 0.2 -3.6
v -1.3 -0.1 3.4
v -1.3 -0.1 2.9
v -1.3 -0.1 -3.6
v -1.3 -0.1 -4.1
v -1.3 0.2 3.4
v -1.3 0.2 2.9
v -1.3 0.2 -3.6
v -1.3 0.2 -4.1
v -1.2 -0.1 3.6
v -1.2 -0.1 3.4
v -1.2 -0.1 -4.1
v -1.2 -0.1 -4.3
v -1.2 0.2 3.6
v -1.2 0.2 3.4
v -1.2 0.2 -4.1
v -1.2 0.2 -4.3
v -1.1 -0.1 3.8
v -1.1 -0.1 3.6
v -1.1 -0.1 -4.3
v -1.1 -0.1 -4.5
v -1.1 0.2 3.8
v -1.1 0.2 3.6
v -1.1 0.2 -4.3
v -1.1 0.2 -4.5
v -1 -0.1 3.9
v -1 -0.1 3.8
v -1 -0.1 -4.5
v -1 -0.1 -4.6
v -1 0.2 3.9
v -1 0.2 3.8
v -1 0.2 -4.5
v -1 0.2 -4.6
v -0.9 -0.1 4.1
v -0.9 -0.1 3.9
v -0.9 -0.1 -4.6
v -0.9 -0.1 -4.8
v -0.9 0.2 4.1
v -0.9 0.2 3.9
v -0.9 0.2 -4.6
v -0.9 0.2 -4.8
v -0.6 -0.1 4.2
v -0.6 -0.1 4.1
v -0.6 -0.1 -4.8
v -0.6 -0.1 -4.9
v -0.6 0.2 4.2
v -0.6 0.2 4.1
v -0.6 0.2 -4.8
v -0.6 0.2 -4.9
v -0.5 -0.8 2.9
v -0.5 -0.8 2.3
v -0.5 -0.8 -3
v -0.5 -0.8 -3.6
v -0.5 -0.1 4.3
v -0.5 -0.1 4.2
v -0.5 -0.1 2.9
v -0.5 -0.1 2.3
v -0.5 -0.1 -3
v -0.5 -0.1 -3.6
v -0.5 -0.1 -4.9
v -0.5 -0.1 -5
v -0.5 0.2 4.3
v -0.5 0.2 4.2
v -0.5 0.2 -4.9
v -0.5 0.2 -5
v -0.3 -0.1 4.4
v -0.3 -0.1 4.3
v -0.3 -0.1 -5
v -0.3 -0.1 -5.1
v -0.3 0.2 4.4
v -0.3 0.2 4.3
v -0.3 0.2 -5
v -0.3 0.2 -5.1
v 0.4 -0.1 4.4
v 0.4 -0.1 4.3
v 0.4 -0.1 -5
v 0.4 -0.1 -5.1
v 0.4 0.2 4.4
v 0.4 0.2 4.3
v 0.4 0.2 -5
v 0.4 0.2 -5.1
v 0.6 -0.8 2.9
v 0.6 -0.8 2.3
v 0.6 -0.8 -3
v 0.6 -0.8 -3.6
v 0.6 -0.1 4.3
v 0.6 -0.1 4.2
v 0.6 -0.1 2.9
v 0.6 -0.1 2.3
v 0.6 -0.1 -3
v 0.6 -0.1 -3.6
v 0.6 -0.1 -4.9
v 0.6 -0.1 -5
v 0.6 0.2 4.3
v 0.6 0.2 4.2
v 0.6 0.2 -4.9
v 0.6 0.2 -5
v 0.7 -0.1 4.2
v 0.7 -0.1 4.1
v 0.7 -0.1 -4.8
v 0.7 -0.1 -4.9
v 0.7 0.2 4.2
v 0.7 0.2 4.1
v 0.7 0.2 -4.8
v 0.7 0.2 -4.9
v 1 -0.1 4.1
v 1 -0.1 3.9
v 1 -0.1 -4.6
v 1 -0.1 -4.8
v 1 0.2 4.1
v 1 0.2 3.9
v 1 0.2 -4.6
v 1 0.2 -4.8
v 1.1 -0.1 3.9
v 1.1 -0.1 3.8
v 1.1 -0.1 -4.5
v 1.1 -0.1 -4.6
v 1.1 0.2 3.9
v 1.1 0.2 3.8
v 1.1 0.2 -4.5
v 1.1 0.2 -4.6
v 1.2 -0.1 3.8
v 1.2 -0.1 3.6
v 1.2 -0.1 -4.3
v 1.2 -0.1 -4.5
v 1.2 0.2 3.8
v 1.2 0.2 3.6
v 1.2 0.2 -4.3
v 1.2 0.2 -4.5
v 1.3 -0.1 3.6
v 1.3 -0.1 3.4
v 1.3 -0.1 -4.1
v 1.3 -0.1 -4.3
v 1.3 0.2 3.6
v 1.3 0.2 3.4
v 1.3 0.2 -4.1
v 1.3 0.2 -4.3
v 1.4 -0.1 3.4
v 1.4 -0.1 2.9
v 1.4 -0.1 -3.6
v 1.4 -0.1 -4.1
v 1.4 0.2 3.4
v 1.4 0.2 2.9
v 1.4 0.2 -3.6
v 1.4 0.2 -4.1
v 1.5 -0.1 2.9
v 1.5 -0.1 -3.6
v 1.5 0.2 2.9
v 1.5 0.2 -3.6
v -0.3 -0.1 4.4
v -0.3 0.2 4.4
v 0.4 -0.1 4.4
v 0.4 0.2 4.4
v -0.5 -0.1 4.3
v -0.5 0.2 4.3
v -0.3 -0.1 4.3
v -0.3 0.2 4.3
v 0.4 -0.1 4.3
v 0.4 0.2 4.3
v 0.6 -0.1 4.3
v 0.6 0.2 4.3
v -0.6 -0.1 4.2
v -0.6 0.2 4.2
v -0.5 -0.1 4.2
v -0.5 0.2 4.2
v 0.6 -0.1 4.2
v 0.6 0.2 4.2
v 0.7 -0.1 4.2
v 0.7 0.2 4.2
v -0.9 -0.1 4.1
v -0.9 0.2 4.1
v -0.6 -0.1 4.1
v -0.6 0.2 4.1
v 0.7 -0.1 4.1
v 0.7 0.2 4.1
v 1 -0.1 4.1
v 1 0.2 4.1
v -1 -0.1 3.9
v -1 0.2 3.9
v -0.9 -0.1 3.9
v -0.9 0.2 3.9
v 1 -0.1 3.9
v 1 0.2 3.9
v 1.1 -0.1 3.9
v 1.1 0.2 3.9
v -1.1 -0.1 3.8
v -1.1 0.2 3.8
v -1 -0.1 3.8
v -1 0.2 3.8
v 1.1 -0.1 3.8
v 1.1 0.2 3.8
v 1.2 -0.1 3.8
v 1.2 0.2 3.8
v -1.2 -0.1 3.6
v -1.2 0.2 3.6
v -1.1 -0.1 3.6
v -1.1 0.2 3.6
v 1.2 -0.1 3.6
v 1.2 0.2 3.6
v 1.3 -0.1 3.6
v 1.3 0.2 3.6
v -1.3 -0.1 3.4
v -1.3 0.2 3.4
v -1.2 -0.1 3.4
v -1.2 0.2 3.4
v 1.3 -0.1 3.4
v 1.3 0.2 3.4
v 1.4 -0.1 3.4
v 1.4 0.2 3.4
v -1.4 -0.1 2.9
v -1.4 0.2 2.9
v -1.3 -0.1 2.9
v -1.3 0.2 2.9
v -0.5 -0.8 2.9
v -0.5 -0.1 2.9
v 0.6 -0.8 2.9
v 0.6 -0.1 2.9
v 1.4 -0.1 2.9
v 1.4 0.2 2.9
v 1.5 -0.1 2.9
v 1.5 0.2 2.9
v -0.5 -0.8 -3
v -0.5 -0.1 -3
v 0.6 -0.8 -3
v 0.6 -0.1 -3
v -0.5 -0.8 2.3
v -0.5 -0.1 2.3
v 0.6 -0.8 2.3
v 0.6 -0.1 2.3
v -1.4 -0.1 -3.6
v -1.4 0.2 -3.6
v -1.3 -0.1 -3.6
v -1.3 0.2 -3.6
v -0.5 -0.8 -3.6
v -0.5 -0.1 -3.6
v 0.6 -0.8 -3.6
v 0.6 -0.1 -3.6
v 1.4 -0.1 -3.6
v 1.4 0.2 -3.6
v 1.5 -0.1 -3.6
v 1.5 0.2 -3.6
v -1.3 -0.1 -4.1
v -1.3 0.2 -4.1
v -1.2 -0.1 -4.1
v -1.2 0.2 -4.1
v 1.3 -0.1 -4.1
v 1.3 0.2 -4.1
v 1.4 -0.1 -4.1
v 1.4 0.2 -4.1
v -1.2 -0.1 -4.3
v -1.2 0.2 -4.3
v -1.1 -0.1 -4.3
v -1.1 0.2 -4.3
v 1.2 -0.1 -4.3
v 1.2 0.2 -4.3
v 1.3 -0.1 -4.3
v 1.3 0.2 -4.3
v -1.1 -0.1 -4.5
v -1.1 0.2 -4.5
v -1 -0.1 -4.5
v -1 0.2 -4.5
v 1.1 -0.1 -4.5
v 1.1 0.2 -4.5
v 1.2 -0.1 -4.5
v 1.2 0.2 -4.5
v -1 -0.1 -4.6
v -1 0.2 -4.6
v -0.9 -0.1 -4.6
v -0.9 0.2 -4.6
v 1 -0.1 -4.6
v 1 0.2 -4.6
v 1.1 -0.1 -4.6
v 1.1 0.2 -4.6
v -0.9 -0.1 -4.8
v -0.9 0.2 -4.8
v -0.6 -0.1 -4.8
v -0.6 0.2 -4.8
v 0.7 -0.1 -4.8
v 0.7 0.2 -4.8
v 1 -0.1 -4.8
v 1 0.2 -4.8
v -0.6 -0.1 -4.9
v -0.6 0.2 -4.9
v -0.5 -0.1 -4.9
v -0.5 0.2 -4.9
v 0.6 -0.1 -4.9
v 0.6 0.2 -4.9
v 0.7 -0.1 -4.9
v 0.7 0.2 -4.9
v -0.5 -0.1 -5
v -0.5 0.2 -5
v -0.3 -0.1 -5
v -0.3 0.2 -5
v 0.4 -0.1 -5
v 0.4 0.2 -5
v 0.6 -0.1 -5
v 0.6 0.2 -5
v -0.3 -0.1 -5.1
v -0.3 0.2 -5.1
v 0.4 -0.1 -5.1
v 0.4 0.2 -5.1
v -0.5 -0.8 2.9
v 0.6 -0.8 2.9
v -0.5 -0.8 2.3
v 0.6 -0.8 2.3
v -0.5 -0.8 -3
v 0.6 -0.8 -3
v -0.5 -0.8 -3.6
v 0.6 -0.8 -3.6
v -0.3 -0.1 4.4
v 0.4 -0.1 4.4
v -0.5 -0.1 4.3
v -0.3 -0.1 4.3
v 0.4 -0.1 4.3
v 0.6 -0.1 4.3
v -0.6 -0.1 4.2
v -0.5 -0.1 4.2
v 0.6 -0.1 4.2
v 0.7 -0.1 4.2
v -0.9 -0.1 4.1
v -0.6 -0.1 4.1
v 0.7 -0.1 4.1
v 1 -0.1 4.1
v -1 -0.1 3.9
v -0.9 -0.1 3.9
v 1 -0.1 3.9
v 1.1 -0.1 3.9
v -1.1 -0.1 3.8
v -1 -0.1 3.8
v 1.1 -0.1 3.8
v 1.2 -0.1 3.8
v -1.2 -0.1 3.6
v -1.1 -0.1 3.6
v 1.2 -0.1 3.6
v 1.3 -0.1 3.6
v -1.3 -0.1 3.4
v -1.2 -0.1 3.4
v 1.3 -0.1 3.4
v 1.4 -0.1 3.4
v -1.4 -0.1 2.9
v -1.3 -0.1 2.9
v -0.5 -0.1 2.9
v 0.6 -0.1 2.9
v 1.4 -0.1 2.9
v 1.5 -0.1 2.9
v -0.5 -0.1 2.3
v 0.6 -0.1 2.3
v -0.5 -0.1 -3
v 0.6 -0.1 -3
v -1.4 -0.1 -3.6
v -1.3 -0.1 -3.6
v -0.5 -0.1 -3.6
v 0.6 -0.1 -3.6
v 1.4 -0.1 -3.6
v 1.5 -0.1 -3.6
v -1.3 -0.1 -4.1
v -1.2 -0.1 -4.1
v 1.3 -0.1 -4.1
v 1.4 -0.1 -4.1
v -1.2 -0.1 -4.3
v -1.1 -0.1 -4.3
v 1.2 -0.1 -4.3
v 1.3 -0.1 -4.3
v -1.1 -0.1 -4.5
v -1 -0.1 -4.5
v 1.1 -0.1 -4.5
v 1.2 -0.1 -4.5
v -1 -0.1 -4.6
v -0.9 -0.1 -4.6
v 1 -0.1 -4.6
v 1.1 -0.1 -4.6
v -0.9 -0.1 -4.8
v -0.6 -0.1 -4.8
v 0.7 -0.1 -4.8
v 1 -0.1 -4.8
v -0.6 -0.1 -4.9
v -0.5 -0.1 -4.9
v 0.6 -0.1 -4.9
v 0.7 -0.1 -4.9
v -0.5 -0.1 -5
v -0.3 -0.1 -5
v 0.4 -0.1 -5
v 0.6 -0.1 -5
v -0.3 -0.1 -5.1
v 0.4 -0.1 -5.1
v -0.3 0.2 4.4
v 0.4 0.2 4.4
v -0.5 0.2 4.3
v -0.3 0.2 4.3
v 0.4 0.2 4.3
v 0.6 0.2 4.3
v -0.6 0.2 4.2
v -0.5 0.2 4.2
v -0.3 0.2 4.2
v 0.4 0.2 4.2
v 0.6 0.2 4.2
v 0.7 0.2 4.2
v -0.9 0.2 4.1
v -0.6 0.2 4.1
v -0.5 0.2 4.1
v 0.6 0.2 4.1
v 0.7 0.2 4.1
v 1 0.2 4.1
v -0.8 0.2 4
v -0.6 0.2 4
v 0.7 0.2 4
v 0.9 0.2 4
v -1 0.2 3.9
v -0.9 0.2 3.9
v -0.8 0.2 3.9
v 0.9 0.2 3.9
v 1 0.2 3.9
v 1.1 0.2 3.9
v -1.1 0.2 3.8
v -1 0.2 3.8
v -0.9 0.2 3.8
v 1 0.2 3.8
v 1.1 0.2 3.8
v 1.2 0.2 3.8
v -1.2 0.2 3.6
v -1.1 0.2 3.6
v -1 0.2 3.6
v 1.1 0.2 3.6
v 1.2 0.2 3.6
v 1.3 0.2 3.6
v -1.3 0.2 3.4
v -1.2 0.2 3.4
v -1.1 0.2 3.4
v 1.2 0.2 3.4
v 1.3 0.2 3.4
v 1.4 0.2 3.4
v -0.6 0.2 3.2
v -0.5 0.2 3.2
v 0.5 0.2 3.2
v 0.6 0.2 3.2
v -0.6 0.2 3
v -0.5 0.2 3
v 0.5 0.2 3
v 0.6 0.2 3
v -1.4 0.2 2.9
v -1.3 0.2 2.9
v -1.2 0.2 2.9
v 1.3 0.2 2.9
v 1.4 0.2 2.9
v 1.5 0.2 2.9
v -0.6 0.2 2.5
v -0.5 0.2 2.5
v 0.5 0.2 2.5
v 0.6 0.2 2.5
v -0.6 0.2 2.3
v -0.5 0.2 2.3
v 0.5 0.2 2.3
v 0.6 0.2 2.3
v -0.6 0.2 -2.7
v -0.5 0.2 -2.7
v 0.5 0.2 -2.7
v 0.6 0.2 -2.7
v -0.6 0.2 -2.9
v -0.5 0.2 -2.9
v 0.5 0.2 -2.9
v 0.6 0.2 -2.9
v -0.6 0.2 -3.4
v -0.5 0.2 -3.4
v 0.5 0.2 -3.4
v 0.6 0.2 -3.4
v -1.4 0.2 -3.6
v -1.3 0.2 -3.6
v -1.2 0.2 -3.6
v -0.6 0.2 -3.6
v -0.5 0.2 -3.6
v 0.5 0.2 -3.6
v 0.6 0.2 -3.6
v 1.3 0.2 -3.6
v 1.4 0.2 -3.6
v 1.5 0.2 -3.6
v -1.3 0.2 -4.1
v -1.2 0.2 -4.1
v -1.1 0.2 -4.1
v 1.2 0.2 -4.1
v 1.3 0.2 -4.1
v 1.4 0.2 -4.1
v -1.2 0.2 -4.3
v -1.1 0.2 -4.3
v -1 0.2 -4.3
v 1.1 0.2 -4.3
v 1.2 0.2 -4.3
v 1.3 0.2 -4.3
v -1.1 0.2 -4.5
v -1 0.2 -4.5
v -0.9 0.2 -4.5
v 1 0.2 -4.5
v 1.1 0.2 -4.5
v 1.2 0.2 -4.5
v -1 0.2 -4.6
v -0.9 0.2 -4.6
v -0.8 0.2 -4.6
v 0.9 0.2 -4.6
v 1 0.2 -4.6
v 1.1 0.2 -4.6
v -0.8 0.2 -4.7
v -0.6 0.2 -4.7
v 0.7 0.2 -4.7
v 0.9 0.2 -4.7
v -0.9 0.2 -4.8
v -0.6 0.2 -4.8
v -0.5 0.2 -4.8
v 0.6 0.2 -4.8
v 0.7 0.2 -4.8
v 1 0.2 -4.8
v -0.6 0.2 -4.9
v -0.5 0.2 -4.9
v -0.3 0.2 -4.9
v 0.4 0.2 -4.9
v 0.6 0.2 -4.9
v 0.7 0.2 -4.9
v -0.5 0.2 -5
v -0.3 0.2 -5
v 0.4 0.2 -5
v 0.6 0.2 -5
v -0.3 0.2 -5.1
v 0.4 0.2 -5.1

# faces
f 3/1/1 2/1/1 1/1/1
f 4/1/1 2/1/1 3/1/1
f 9/1/1 6/1/1 5/1/1
f 10/1/1 6/1/1 9/1/1
f 11/1/1 8/1/1 7/1/1
f 12/1/1 8/1/1 11/1/1
f 17/1/1 14/1/1 13/1/1
f 18/1/1 14/1/1 17/1/1
f 19/1/1 16/1/1 15/1/1
f 20/1/1 16/1/1 19/1/1
f 25/1/1 22/1/1 21/1/1
f 26/1/1 22/1/1 25/1/1
f 27/1/1 24/1/1 23/1/1
f 28/1/1 24/1/1 27/1/1
f 33/1/1 30/1/1 29/1/1
f 34/1/1 30/1/1 33/1/1
f 35/1/1 32/1/1 31/1/1
f 36/1/1 32/1/1 35/1/1
f 41/1/1 38/1/1 37/1/1
f 42/1/1 38/1/1 41/1/1
f 43/1/1 40/1/1 39/1/1
f 44/1/1 40/1/1 43/1/1
f 49/1/1 46/1/1 45/1/1
f 50/1/1 46/1/1 49/1/1
f 51/1/1 48/1/1 47/1/1
f 52/1/1 48/1/1 51/1/1
f 59/3/1 54/3/1 53/3/1
f 60/3/1 54/3/1 59/3/1
f 61/3/1 56/3/1 55/3/1
f 62/3/1 56/3/1 61/3/1
f 65/1/1 58/1/1 57/1/1
f 66/1/1 58/1/1 65/1/1
f 67/1/1 64/1/1 63/1/1
f 68/1/1 64/1/1 67/1/1
f 73/1/1 70/1/1 69/1/1
f 74/1/1 70/1/1 73/1/1
f 75/1/1 72/1/1 71/1/1
f 76/1/1 72/1/1 75/1/1
f 77/1/2 78/1/2 81/1/2
f 81/1/2 78/1/2 82/1/2
f 79/1/2 80/1/2 83/1/2
f 83/1/2 80/1/2 84/1/2
f 85/3/2 86/3/2 91/3/2
f 91/3/2 86/3/2 92/3/2
f 87/3/2 88/3/2 93/3/2
f 93/3/2 88/3/2 94/3/2
f 89/1/2 90/1/2 97/1/2
f 97/1/2 90/1/2 98/1/2
f 95/1/2 96/1/2 99/1/2
f 99/1/2 96/1/2 100/1/2
f 101/1/2 102/1/2 105/1/2
f 105/1/2 102/1/2 106/1/2
f 103/1/2 104/1/2 107/1/2
f 107/1/2 104/1/2 108/1/2
f 109/1/2 110/1/2 113/1/2
f 113/1/2 110/1/2 114/1/2
f 111/1/2 112/1/2 115/1/2
f 115/1/2 112/1/2 116/1/2
f 117/1/2 118/1/2 121/1/2
f 121/1/2 118/1/2 122/1/2
f 119/1/2 120/1/2 123/1/2
f 123/1/2 120/1/2 124/1/2
f 125/1/2 126/1/2 129/1/2
f 129/1/2 126/1/2 130/1/2
f 127/1/2 128/1/2 131/1/2
f 131/1/2 128/1/2 132/1/2
f 133/1/2 134/1/2 137/1/2
f 137/1/2 134/1/2 138/1/2
f 135/1/2 136/1/2 139/1/2
f 139/1/2 136/1/2 140/1/2
f 141/1/2 142/1/2 145/1/2
f 145/1/2 142/1/2 146/1/2
f 143/1/2 144/1/2 147/1/2
f 147/1/2 144/1/2 148/1/2
f 149/1/2 150/1/2 151/1/2
f 151/1/2 150/1/2 152/1/2
f 155/1/3 154/1/3 153/1/3
f 156/1/3 154/1/3 155/1/3
f 159/1/3 158/1/3 157/1/3
f 160/1/3 158/1/3 159/1/3
f 163/1/3 162/1/3 161/1/3
f 164/1/3 162/1/3 163/1/3
f 167/1/3 166/1/3 165/1/3
f 168/1/3 166/1/3 167/1/3
f 171/1/3 170/1/3 169/1/3
f 172/1/3 170/1/3 171/1/3
f 175/1/3 174/1/3 173/1/3
f 176/1/3 174/1/3 175/1/3
f 179/1/3 178/1/3 177/1/3
f 180/1/3 178/1/3 179/1/3
f 183/1/3 182/1/3 181/1/3
f 184/1/3 182/1/3 183/1/3
f 187/1/3 186/1/3 185/1/3
f 188/1/3 186/1/3 187/1/3
f 191/1/3 190/1/3 189/1/3
f 192/1/3 190/1/3 191/1/3
f 195/1/3 194/1/3 193/1/3
f 196/1/3 194/1/3 195/1/3
f 199/1/3 198/1/3 197/1/3
f 200/1/3 198/1/3 199/1/3
f 203/1/3 202/1/3 201/1/3
f 204/1/3 202/1/3 203/1/3
f 207/1/3 206/1/3 205/1/3
f 208/1/3 206/1/3 207/1/3
f 211/1/3 210/1/3 209/1/3
f 212/1/3 210/1/3 211/1/3
f 215/1/3 214/1/3 213/1/3
f 216/1/3 214/1/3 215/1/3
f 219/3/3 218/3/3 217/3/3
f 220/3/3 218/3/3 219/3/3
f 223/1/3 222/1/3 221/1/3
f 224/1/3 222/1/3 223/1/3
f 227/3/3 226/3/3 225/3/3
f 228/3/3 226/3/3 227/3/3
f 229/3/4 230/3/4 231/3/4
f 231/3/4 230/3/4 232/3/4
f 233/1/4 234/1/4 235/1/4
f 235/1/4 234/1/4 236/1/4
f 237/3/4 238/3/4 239/3/4
f 239/3/4 238/3/4 240/3/4
f 241/1/4 242/1/4 243/1/4
f 243/1/4 242/1/4 244/1/4
f 245/1/4 246/1/4 247/1/4
f 247/1/4 246/1/4 248/1/4
f 249/1/4 250/1/4 251/1/4
f 251/1/4 250/1/4 252/1/4
f 253/1/4 254/1/4 255/1/4
f 255/1/4 254/1/4 256/1/4
f 257/1/4 258/1/4 259/1/4
f 259/1/4 258/1/4 260/1/4
f 261/1/4 262/1/4 263/1/4
f 263/1/4 262/1/4 264/1/4
f 265/1/4 266/1/4 267/1/4
f 267/1/4 266/1/4 268/1/4
f 269/1/4 270/1/4 271/1/4
f 271/1/4 270/1/4 272/1/4
f 273/1/4 274/1/4 275/1/4
f 275/1/4 274/1/4 276/1/4
f 277/1/4 278/1/4 279/1/4
f 279/1/4 278/1/4 280/1/4
f 281/1/4 282/1/4 283/1/4
f 283/1/4 282/1/4 284/1/4
f 285/1/4 286/1/4 287/1/4
f 287/1/4 286/1/4 288/1/4
f 289/1/4 290/1/4 291/1/4
f 291/1/4 290/1/4 292/1/4
f 293/1/4 294/1/4 295/1/4
f 295/1/4 294/1/4 296/1/4
f 297/1/4 298/1/4 299/1/4
f 299/1/4 298/1/4 300/1/4
f 301/1/4 302/1/4 303/1/4
f 303/1/4 302/1/4 304/1/4
f 307/3/5 306/3/5 305/3/5
f 308/3/5 306/3/5 307/3/5
f 311/3/5 310/3/5 309/3/5
f 312/3/5 310/3/5 311/3/5
f 316/1/5 314/1/5 313/1/5
f 317/1/5 314/1/5 316/1/5
f 320/1/5 316/1/5 315/1/5
f 320/1/5 318/1/5 317/1/5
f 320/1/5 317/1/5 316/1/5
f 321/1/5 318/1/5 320/1/5
f 324/1/5 320/1/5 319/1/5
f 324/1/5 322/1/5 321/1/5
f 324/1/5 321/1/5 320/1/5
f 325/1/5 322/1/5 324/1/5
f 328/1/5 324/1/5 323/1/5
f 328/1/5 326/1/5 325/1/5
f 328/1/5 325/1/5 324/1/5
f 329/1/5 326/1/5 328/1/5
f 332/1/5 328/1/5 327/1/5
f 332/1/5 330/1/5 329/1/5
f 332/1/5 329/1/5 328/1/5
f 333/1/5 330/1/5 332/1/5
f 336/1/5 332/1/5 331/1/5
f 336/1/5 334/1/5 333/1/5
f 336/1/5 333/1/5 332/1/5
f 337/1/5 334/1/5 336/1/5
f 340/1/5 336/1/5 335/1/5
f 340/1/5 338/1/5 337/1/5
f 340/1/5 337/1/5 336/1/5
f 341/1/5 338/1/5 340/1/5
f 344/1/5 340/1/5 339/1/5
f 344/1/5 342/1/5 341/1/5
f 344/1/5 341/1/5 340/1/5
f 345/1/5 342/1/5 344/1/5
f 346/1/5 342/1/5 345/1/5
f 347/1/5 342/1/5 346/1/5
f 349/1/5 344/1/5 343/1/5
f 349/1/5 345/1/5 344/1/5
f 350/1/5 348/1/5 347/1/5
f 350/1/5 347/1/5 346/1/5
f 351/1/5 349/1/5 343/1/5
f 351/1/5 350/1/5 349/1/5
f 352/1/5 348/1/5 350/1/5
f 352/1/5 350/1/5 351/1/5
f 353/1/5 351/1/5 343/1/5
f 354/1/5 351/1/5 353/1/5
f 355/1/5 351/1/5 354/1/5
f 356/1/5 348/1/5 352/1/5
f 357/1/5 348/1/5 356/1/5
f 358/1/5 348/1/5 357/1/5
f 359/1/5 355/1/5 354/1/5
f 359/1/5 357/1/5 356/1/5
f 359/1/5 356/1/5 355/1/5
f 360/1/5 357/1/5 359/1/5
f 361/1/5 357/1/5 360/1/5
f 362/1/5 357/1/5 361/1/5
f 363/1/5 361/1/5 360/1/5
f 364/1/5 361/1/5 363/1/5
f 365/1/5 361/1/5 364/1/5
f 366/1/5 361/1/5 365/1/5
f 367/1/5 365/1/5 364/1/5
f 368/1/5 365/1/5 367/1/5
f 369/1/5 365/1/5 368/1/5
f 370/1/5 365/1/5 369/1/5
f 371/1/5 369/1/5 368/1/5
f 372/1/5 369/1/5 371/1/5
f 373/1/5 369/1/5 372/1/5
f 374/1/5 369/1/5 373/1/5
f 375/1/5 373/1/5 372/1/5
f 376/1/5 373/1/5 375/1/5
f 377/1/5 373/1/5 376/1/5
f 378/1/5 373/1/5 377/1/5
f 379/1/5 377/1/5 376/1/5
f 380/1/5 377/1/5 379/1/5
f 381/1/5 377/1/5 380/1/5
f 382/1/5 377/1/5 381/1/5
f 383/1/5 381/1/5 380/1/5
f 384/1/5 381/1/5 383/1/5
f 385/1/5 381/1/5 384/1/5
f 386/1/5 381/1/5 385/1/5
f 387/1/5 385/1/5 384/1/5
f 388/1/5 385/1/5 387/1/5
f 389/1/6 390/1/6 392/1/6
f 392/1/6 390/1/6 393/1/6
f 391/1/6 392/1/6 396/1/6
f 392/4/6 393/4/6 397/4/6
f 396/1/6 392/1/6 397/1/6
f 393/1/6 394/1/6 398/1/6
f 397/4/6 393/4/6 398/4/6
f 398/1/6 394/1/6 399/1/6
f 395/1/6 396/1/6 402/1/6
f 396/4/6 397/4/6 403/4/6
f 397/4/6 398/4/6 403/4/6
f 402/1/6 396/1/6 403/1/6
f 398/4/6 399/4/6 403/4/6
f 399/1/6 400/1/6 404/1/6
f 403/4/6 399/4/6 404/4/6
f 404/1/6 400/1/6 405/1/6
f 401/1/6 402/1/6 407/1/6
f 402/4/6 403/4/6 408/4/6
f 407/1/6 402/1/6 408/1/6
f 403/4/6 404/4/6 408/4/6
f 404/4/6 405/4/6 408/4/6
f 405/1/6 406/1/6 409/1/6
f 408/4/6 405/4/6 409/4/6
f 409/1/6 406/1/6 410/1/6
f 401/1/6 407/1/6 412/1/6
f 407/4/6 408/4/6 413/4/6
f 408/4/6 409/4/6 413/4/6
f 412/1/6 407/1/6 413/1/6
f 409/4/6 410/4/6 413/4/6
f 410/1/6 406/1/6 414/1/6
f 413/4/6 410/4/6 414/4/6
f 414/1/6 406/1/6 415/1/6
f 411/1/6 412/1/6 418/1/6
f 412/4/6 413/4/6 419/4/6
f 413/4/6 414/4/6 419/4/6
f 418/1/6 412/1/6 419/1/6
f 414/4/6 415/4/6 419/4/6
f 415/1/6 416/1/6 420/1/6
f 419/4/6 415/4/6 420/4/6
f 420/1/6 416/1/6 421/1/6
f 417/1/6 418/1/6 424/1/6
f 418/4/6 419/4/6 425/4/6
f 419/4/6 420/4/6 425/4/6
f 424/1/6 418/1/6 425/1/6
f 420/4/6 421/4/6 425/4/6
f 421/1/6 422/1/6 426/1/6
f 425/4/6 421/4/6 426/4/6
f 426/1/6 422/1/6 427/1/6
f 423/1/6 424/1/6 430/1/6
f 424/4/6 425/4/6 431/4/6
f 425/4/6 426/4/6 431/4/6
f 430/1/6 424/1/6 431/1/6
f 426/4/6 427/4/6 431/4/6
f 427/1/6 428/1/6 432/1/6
f 431/4/6 427/4/6 432/4/6
f 432/1/6 428/1/6 433/1/6
f 430/4/6 431/4/6 435/4/6
f 431/4/6 432/4/6 435/4/6
f 432/4/6 433/4/6 435/4/6
f 435/4/6 433/4/6 436/4/6
f 436/4/6 433/4/6 437/4/6
f 437/4/6 433/4/6 438/4/6
f 430/4/6 435/4/6 439/4/6
f 435/2/6 436/2/6 439/2/6
f 436/4/6 437/4/6 440/4/6
f 439/2/6 436/2/6 440/2/6
f 437/2/6 438/2/6 441/2/6
f 440/4/6 437/4/6 441/4/6
f 438/4/6 433/4/6 442/4/6
f 441/2/6 438/2/6 442/2/6
f 429/1/6 430/1/6 444/1/6
f 440/4/6 441/4/6 445/4/6
f 439/4/6 440/4/6 445/4/6
f 444/1/6 430/1/6 445/1/6
f 430/4/6 439/4/6 445/4/6
f 441/4/6 442/4/6 445/4/6
f 433/1/6 434/1/6 446/1/6
f 445/4/6 442/4/6 446/4/6
f 442/4/6 433/4/6 446/4/6
f 446/1/6 434/1/6 447/1/6
f 444/4/6 445/4/6 449/4/6
f 445/4/6 446/4/6 449/4/6
f 446/4/6 447/4/6 449/4/6
f 449/4/6 447/4/6 450/4/6
f 450/4/6 447/4/6 451/4/6
f 451/4/6 447/4/6 452/4/6
f 444/4/6 449/4/6 453/4/6
f 449/2/6 450/2/6 453/2/6
f 450/4/6 451/4/6 454/4/6
f 453/2/6 450/2/6 454/2/6
f 451/2/6 452/2/6 455/2/6
f 454/4/6 451/4/6 455/4/6
f 452/4/6 447/4/6 456/4/6
f 455/2/6 452/2/6 456/2/6
f 454/4/6 455/4/6 457/4/6
f 453/4/6 454/4/6 457/4/6
f 455/4/6 456/4/6 457/4/6
f 444/4/6 453/4/6 457/4/6
f 457/4/6 456/4/6 458/4/6
f 458/4/6 456/4/6 459/4/6
f 456/4/6 447/4/6 460/4/6
f 459/4/6 456/4/6 460/4/6
f 444/4/6 457/4/6 461/4/6
f 457/2/6 458/2/6 461/2/6
f 458/4/6 459/4/6 462/4/6
f 461/2/6 458/2/6 462/2/6
f 459/2/6 460/2/6 463/2/6
f 462/4/6 459/4/6 463/4/6
f 460/4/6 447/4/6 464/4/6
f 463/2/6 460/2/6 464/2/6
f 444/4/6 461/4/6 465/4/6
f 462/4/6 463/4/6 465/4/6
f 463/4/6 464/4/6 465/4/6
f 461/4/6 462/4/6 465/4/6
f 465/4/6 464/4/6 466/4/6
f 466/4/6 464/4/6 467/4/6
f 464/4/6 447/4/6 468/4/6
f 467/4/6 464/4/6 468/4/6
f 443/1/6 444/1/6 469/1/6
f 444/4/6 465/4/6 470/4/6
f 469/1/6 444/1/6 470/1/6
f 470/4/6 465/4/6 471/4/6
f 465/2/6 466/2/6 472/2/6
f 471/4/6 465/4/6 472/4/6
f 466/4/6 467/4/6 473/4/6
f 472/2/6 466/2/6 473/2/6
f 467/2/6 468/2/6 474/2/6
f 473/4/6 467/4/6 474/4/6
f 468/4/6 447/4/6 475/4/6
f 474/2/6 468/2/6 475/2/6
f 475/4/6 447/4/6 476/4/6
f 447/1/6 448/1/6 477/1/6
f 476/4/6 447/4/6 477/4/6
f 477/1/6 448/1/6 478/1/6
f 470/1/6 471/1/6 479/1/6
f 475/4/6 476/4/6 480/4/6
f 479/1/6 471/1/6 480/1/6
f 473/4/6 474/4/6 480/4/6
f 474/4/6 475/4/6 480/4/6
f 471/4/6 472/4/6 480/4/6
f 472/4/6 473/4/6 480/4/6
f 480/4/6 476/4/6 481/4/6
f 481/4/6 476/4/6 482/4/6
f 476/1/6 477/1/6 483/1/6
f 482/4/6 476/4/6 483/4/6
f 483/1/6 477/1/6 484/1/6
f 480/1/6 481/1/6 485/1/6
f 481/4/6 482/4/6 486/4/6
f 485/1/6 481/1/6 486/1/6
f 486/4/6 482/4/6 487/4/6
f 487/4/6 482/4/6 488/4/6
f 482/1/6 483/1/6 489/1/6
f 488/4/6 482/4/6 489/4/6
f 489/1/6 483/1/6 490/1/6
f 486/1/6 487/1/6 491/1/6
f 487/4/6 488/4/6 492/4/6
f 491/1/6 487/1/6 492/1/6
f 492/4/6 488/4/6 493/4/6
f 493/4/6 488/4/6 494/4/6
f 488/1/6 489/1/6 495/1/6
f 494/4/6 488/4/6 495/4/6
f 495/1/6 489/1/6 496/1/6
f 492/1/6 493/1/6 497/1/6
f 493/4/6 494/4/6 498/4/6
f 497/1/6 493/1/6 498/1/6
f 498/4/6 494/4/6 499/4/6
f 499/4/6 494/4/6 500/4/6
f 494/1/6 495/1/6 501/1/6
f 500/4/6 494/4/6 501/4/6
f 501/1/6 495/1/6 502/1/6
f 499/4/6 500/4/6 503/4/6
f 498/1/6 499/1/6 503/1/6
f 503/4/6 500/4/6 504/4/6
f 504/4/6 500/4/6 505/4/6
f 500/1/6 501/1/6 506/1/6
f 505/4/6 500/4/6 506/4/6
f 498/1/6 503/1/6 507/1/6
f 503/1/6 504/1/6 507/1/6
f 504/4/6 505/4/6 508/4/6
f 507/1/6 504/1/6 508/1/6
f 508/4/6 505/4/6 509/4/6
f 509/4/6 505/4/6 510/4/6
f 505/1/6 506/1/6 511/1/6
f 510/4/6 505/4/6 511/4/6
f 506/1/6 501/1/6 512/1/6
f 511/1/6 506/1/6 512/1/6
f 508/1/6 509/1/6 513/1/6
f 509/4/6 510/4/6 514/4/6
f 513/1/6 509/1/6 514/1/6
f 514/4/6 510/4/6 515/4/6
f 515/4/6 510/4/6 516/4/6
f 510/1/6 511/1/6 517/1/6
f 516/4/6 510/4/6 517/4/6
f 517/1/6 511/1/6 518/1/6
f 514/1/6 515/1/6 519/1/6
f 515/4/6 516/4/6 520/4/6
f 519/1/6 515/1/6 520/1/6
f 516/1/6 517/1/6 521/1/6
f 520/4/6 516/4/6 521/4/6
f 521/1/6 517/1/6 522/1/6
f 520/1/6 521/1/6 523/1/6
f 523/1/6 521/1/6 524/1/6
