# Blender v2.90.1 OBJ File: 'volcano.blend'
# www.blender.org
mtllib lilypad.mtl
o Circle
v 0.000000 0.012135 -3.032567
v -0.591624 -0.065081 -2.974297
v -1.160513 0.000000 -2.801727
v -1.684804 0.062910 -2.521487
v -2.144349 0.000000 -2.144349
v -2.521487 0.000000 -1.684804
v -2.801727 0.046843 -1.160513
v -2.974297 0.000000 -0.591625
v -3.034271 0.010312 0.033829
v 0.417144 0.000000 0.108512
v -2.664653 0.000000 1.155577
v -2.521487 -0.016730 1.684804
v -2.144349 -0.071932 2.144349
v -1.684804 -0.056721 2.521487
v -1.160513 0.000000 2.801727
v -0.591624 -0.023433 2.974297
v 0.000001 0.000000 3.032567
v 0.591626 0.000000 2.974297
v 1.160514 0.000000 2.801726
v 1.684805 -0.035900 2.521486
v 2.144350 -0.020486 2.144347
v 2.521488 0.000000 1.684802
v 2.801728 0.044600 1.142955
v 2.974298 0.000000 0.591622
v 3.032567 0.044044 -0.000003
v 2.974297 0.000000 -0.591628
v 2.801725 0.064919 -1.160516
v 2.521485 0.000000 -1.684807
v 2.144346 0.052065 -2.144351
v 1.684801 0.000000 -2.521490
v 1.160509 0.000000 -2.801728
v 0.591620 0.039968 -2.974298
v 0.000000 0.039350 -3.032567
v -0.591624 -0.037866 -2.974297
v -1.160513 0.027215 -2.801727
v -1.684804 0.090125 -2.521487
v -2.144349 0.027215 -2.144349
v -2.521487 0.027215 -1.684804
v -2.801727 0.074057 -1.160513
v -2.974297 0.027215 -0.591625
v -3.040748 0.036744 0.033829
v 0.417144 0.027215 0.108512
v -2.664653 0.027215 1.155577
v -2.521487 0.010484 1.684804
v -2.144349 -0.044717 2.144349
v -1.684804 -0.029506 2.521487
v -1.160513 0.027215 2.801727
v -0.591624 0.003782 2.974297
v 0.000001 0.027215 3.032567
v 0.591626 0.027215 2.974297
v 1.160514 0.027215 2.801726
v 1.684805 -0.008685 2.521486
v 2.144350 0.006729 2.144347
v 2.521488 0.027215 1.684802
v 2.801728 0.069925 1.152919
v 2.974298 0.027215 0.591622
v 3.032567 0.071259 -0.000003
v 2.974297 0.027215 -0.591628
v 2.801725 0.092133 -1.160516
v 2.521485 0.027215 -1.684807
v 2.144346 0.079280 -2.144351
v 1.684801 0.027215 -2.521490
v 1.160509 0.027215 -2.801728
v 0.591620 0.067183 -2.974298
v -0.003067 0.087539 -3.128902
v -0.613605 0.010322 -3.068769
v -1.200680 0.075403 -2.890682
v -1.741731 0.138313 -2.601484
v -2.215966 0.075403 -2.212289
v -2.605162 0.075403 -1.738054
v -2.894360 0.122246 -1.197002
v -3.072447 0.075403 -0.609928
v -3.124295 0.065886 -0.033220
v -2.715212 0.075403 1.241872
v -2.605162 0.058673 1.739274
v -2.215966 0.003471 2.213510
v -1.741731 0.018683 2.602705
v -1.200679 0.075403 2.891903
v -0.613604 0.051970 3.069990
v -0.003066 0.075403 3.130123
v 0.607472 0.075403 3.069990
v 1.194547 0.075403 2.891902
v 1.735598 0.039503 2.602704
v 2.209834 0.054917 2.213508
v 2.599029 0.075403 1.739272
v 2.888226 0.100961 1.205653
v 3.066313 0.075403 0.611145
v 3.126445 0.119447 0.000607
v 3.066312 0.075403 -0.609931
v 2.888224 0.140322 -1.197006
v 2.599025 0.075403 -1.738057
v 2.209830 0.127469 -2.212292
v 1.735593 0.075403 -2.601487
v 1.194541 0.075403 -2.890684
v 0.607466 0.115371 -3.068770
v -0.003067 0.115623 -3.128902
v -0.613605 0.038407 -3.068769
v -1.200680 0.103488 -2.890682
v -1.741731 0.166398 -2.601484
v -2.215966 0.103488 -2.212289
v -2.605162 0.103488 -1.738054
v -2.894360 0.150330 -1.197002
v -3.072447 0.103488 -0.609928
v -3.130980 0.093164 -0.033220
v -2.715212 0.103488 1.241872
v -2.605162 0.086757 1.739274
v -2.215966 0.031556 2.213510
v -1.741731 0.046767 2.602705
v -1.200679 0.103488 2.891903
v -0.613604 0.080055 3.069990
v -0.003066 0.103488 3.130123
v 0.607472 0.103488 3.069990
v 1.194547 0.103488 2.891902
v 1.735598 0.067588 2.602704
v 2.209834 0.083002 2.213508
v 2.599029 0.103488 1.739272
v 2.888226 0.127095 1.215936
v 3.066313 0.103488 0.611145
v 3.126445 0.147532 0.000607
v 3.066312 0.103488 -0.609931
v 2.888224 0.168406 -1.197006
v 2.599025 0.103488 -1.738057
v 2.209830 0.155553 -2.212292
v 1.735593 0.103488 -2.601487
v 1.194541 0.103488 -2.890684
v 0.607466 0.143456 -3.068770
v -1.192291 0.000000 0.784078
v -1.192291 0.027215 0.784078
vt 0.733266 0.576967
vt 0.685384 0.566621
vt 0.640207 0.545741
vt 0.599479 0.515123
vt 0.564717 0.475984
vt 0.537252 0.429834
vt 0.518209 0.378386
vt 0.508221 0.323703
vt 0.507781 0.267791
vt 0.516800 0.212890
vt 0.535020 0.161034
vt 0.561258 0.115868
vt 0.595780 0.074369
vt 0.636015 0.042865
vt 0.680827 0.020976
vt 0.728475 0.009560
vt 0.777167 0.009023
vt 0.825014 0.019400
vt 0.870190 0.040282
vt 0.910925 0.070893
vt 0.945712 0.110010
vt 0.973161 0.156174
vt 0.992203 0.207623
vt 0.991266 0.259161
vt 0.866975 0.253772
vt 0.724910 0.272195
vt 0.994492 0.370140
vt 0.975384 0.424982
vt 0.948701 0.471767
vt 0.914624 0.511647
vt 0.874399 0.543142
vt 0.829565 0.565050
vt 0.781929 0.576455
vt 0.232235 0.009132
vt 0.280899 0.009450
vt 0.328569 0.020665
vt 0.373469 0.042394
vt 0.413789 0.073729
vt 0.447987 0.113473
vt 0.474811 0.160151
vt 0.494594 0.214744
vt 0.224800 0.313936
vt 0.366921 0.331792
vt 0.491194 0.325908
vt 0.492287 0.377442
vt 0.473401 0.428967
vt 0.446093 0.475240
vt 0.411424 0.514494
vt 0.370781 0.545269
vt 0.325669 0.566330
vt 0.277854 0.576897
vt 0.229161 0.576554
vt 0.181478 0.565328
vt 0.136600 0.543618
vt 0.096270 0.512275
vt 0.061855 0.471812
vt 0.035249 0.425852
vt 0.016872 0.374070
vt 0.007686 0.319205
vt 0.007957 0.263291
vt 0.017780 0.208568
vt 0.036668 0.157045
vt 0.063993 0.110786
vt 0.098636 0.071509
vt 0.139271 0.040729
vt 0.184385 0.019669
vt 0.636753 0.553875
vt 0.594722 0.522278
vt 0.009480 0.376605
vt 0.000000 0.319986
vt 0.878430 0.551194
vt 0.832164 0.573801
vt 0.558849 0.481889
vt 0.028443 0.430043
vt 0.028751 0.595307
vt 0.026523 0.595374
vt 0.032489 0.585984
vt 0.034788 0.585916
vt 0.783004 0.585572
vt 0.530507 0.434263
vt 0.056505 0.479782
vt 0.732785 0.586101
vt 0.510854 0.381171
vt 0.091416 0.519227
vt 0.040200 0.854952
vt 0.044337 0.585916
vt 0.046563 0.586027
vt 0.042354 0.855557
vt 0.683373 0.575423
vt 0.029204 0.713963
vt 0.031432 0.713897
vt 0.500547 0.324739
vt 0.133034 0.551573
vt 0.500092 0.267040
vt 0.179347 0.573977
vt 0.046563 0.866342
vt 0.044341 0.865718
vt 0.509401 0.210383
vt 0.228554 0.585562
vt 0.528203 0.156870
vt 0.278804 0.585916
vt 0.555876 0.107948
vt 0.328148 0.575011
vt 0.590905 0.067435
vt 0.374702 0.553276
vt 0.632425 0.034924
vt 0.416644 0.521518
vt 0.678670 0.012335
vt 0.452420 0.481008
vt 0.002300 0.732250
vt 0.008154 0.789191
vt 0.005854 0.789228
vt 0.000000 0.732287
vt 0.019126 0.898757
vt 0.015852 0.952044
vt 0.013552 0.952044
vt 0.016826 0.898757
vt 0.037610 0.585916
vt 0.037277 0.633907
vt 0.034978 0.633939
vt 0.035311 0.585948
vt 0.008863 0.846800
vt 0.006562 0.846837
vt 0.018132 1.000000
vt 0.015832 1.000000
vt 0.040200 0.687175
vt 0.037901 0.687207
vt 0.005715 0.902841
vt 0.003415 0.902879
vt 0.039240 0.743770
vt 0.036941 0.743802
vt 0.010193 0.954978
vt 0.007893 0.955015
vt 0.038171 0.801466
vt 0.035872 0.801498
vt 0.011508 0.998494
vt 0.009279 0.998951
vt 0.036952 0.857507
vt 0.034788 0.856790
vt 0.040200 0.911274
vt 0.037901 0.911306
vt 0.037938 0.959239
vt 0.035639 0.959271
vt 0.024224 0.940201
vt 0.023552 0.904759
vt 0.025851 0.904741
vt 0.026523 0.940183
vt 0.015518 0.585916
vt 0.019126 0.626700
vt 0.016826 0.626700
vt 0.013218 0.585916
vt 0.019126 0.849177
vt 0.021425 0.849158
vt 0.013809 0.674656
vt 0.011508 0.674656
vt 0.020136 0.791639
vt 0.022435 0.791620
vt 0.019126 0.727943
vt 0.016826 0.727943
vt 0.024224 0.734374
vt 0.026523 0.734356
vt 0.004660 0.585916
vt 0.011508 0.628443
vt 0.009208 0.628480
vt 0.002359 0.585953
vt 0.014861 0.784512
vt 0.012561 0.784512
vt 0.021451 0.679664
vt 0.023751 0.679645
vt 0.006785 0.677918
vt 0.004485 0.677955
vt 0.019126 0.842188
vt 0.016826 0.842188
vt 0.022251 0.629527
vt 0.024550 0.629508
vt 0.020909 0.585935
vt 0.023208 0.585916
vt 0.919941 0.518691
vt 0.000280 0.262285
vt 0.955109 0.477536
vt 0.010416 0.205812
vt 0.182347 0.010875
vt 0.231726 0.000000
vt 0.982644 0.429256
vt 0.029908 0.152642
vt 0.281946 0.000328
vt 1.000000 0.378590
vt 0.058107 0.104904
vt 0.331142 0.011903
vt 0.093857 0.064372
vt 0.377476 0.034326
vt 0.135792 0.032608
vt 0.419085 0.066663
vt 1.000000 0.204949
vt 0.997193 0.252741
vt 0.454377 0.107677
vt 0.980349 0.151856
vt 0.482058 0.155848
vt 0.952023 0.104216
vt 0.500092 0.206266
vt 0.916124 0.063848
vt 0.874086 0.032258
vt 0.827467 0.010708
vt 0.497140 0.332304
vt 0.500092 0.380084
vt 0.778090 0.000000
vt 0.480602 0.433255
vt 0.727842 0.000554
vt 0.032560 0.862404
vt 0.034788 0.862337
vn 0.0041 -1.0000 -0.0055
vn -0.0041 1.0000 0.0056
vn 0.1304 -0.7830 -0.6083
vn -0.6340 0.7733 0.0058
vn -0.3231 -0.7886 -0.5232
vn 0.2940 -0.7816 -0.5501
vn -0.6340 0.7733 -0.0058
vn -0.8628 0.0000 -0.5055
vn -0.3594 -0.7892 -0.4979
vn 0.4483 -0.7778 -0.4405
vn -0.5237 0.8270 -0.2045
vn -0.2585 -0.7873 -0.5597
vn 0.4404 -0.7779 -0.4482
vn -0.5130 0.8285 -0.2248
vn -0.0216 -0.0026 0.9998
vn 0.0391 -0.7814 -0.6227
vn -0.2446 0.0000 -0.9696
vn 0.5915 -0.7753 -0.2217
vn -0.5024 0.7775 -0.3782
vn 0.5748 -0.7754 -0.2615
vn -0.4127 0.7794 -0.4715
vn -0.6511 -0.1595 0.7420
vn 0.6297 -0.7768 -0.0051
vn -0.2523 0.7815 -0.5706
vn 0.6297 -0.7768 0.0051
vn -0.1804 0.7835 -0.5946
vn 0.5166 -0.8303 0.2089
vn -0.0607 0.7854 -0.6160
vn 0.5124 -0.8309 0.2171
vn 0.0301 0.7865 -0.6169
vn 0.4991 -0.7810 0.3753
vn 0.2074 0.7891 -0.5782
vn 0.4100 -0.7828 0.4681
vn 0.2232 0.7875 -0.5745
vn -0.6344 0.0000 -0.7730
vn 0.2903 0.0000 -0.9569
vn 0.2903 0.0000 0.9569
vn -0.7730 0.0000 -0.6344
vn 0.0980 0.0000 -0.9952
vn 0.4714 0.0000 0.8819
vn -0.8819 0.0000 -0.4714
vn 0.6344 0.0000 0.7730
vn -0.9569 0.0000 -0.2903
vn 0.7730 0.0000 0.6344
vn -0.9881 -0.1193 -0.0966
vn 0.8754 -0.0901 0.4749
vn 0.9566 -0.0543 0.2863
vn 0.9952 0.0000 0.0980
vn -0.9764 0.0000 0.2160
vn 0.9952 0.0000 -0.0980
vn -0.7730 0.0000 0.6344
vn 0.9569 0.0000 -0.2903
vn -0.6344 0.0000 0.7730
vn 0.8819 0.0000 -0.4714
vn -0.4714 0.0000 0.8819
vn -0.0980 0.0000 -0.9952
vn 0.7730 0.0000 -0.6344
vn -0.2903 0.0000 0.9569
vn -0.2903 0.0000 -0.9569
vn 0.6344 0.0000 -0.7730
vn -0.0980 0.0000 0.9952
vn -0.4714 0.0000 -0.8819
vn 0.4714 0.0000 -0.8819
vn 0.0980 0.0000 0.9952
vn -0.4700 -0.7939 -0.3857
vn -0.5791 0.7719 0.2624
vn 0.0967 -0.7840 -0.6132
vn -0.5621 -0.7943 -0.2306
vn -0.5951 0.7718 0.2240
vn -0.0382 0.7780 0.6270
vn -0.5605 -0.7943 -0.2344
vn -0.4440 0.7744 0.4507
vn 0.2594 0.7839 0.5641
vn -0.5548 -0.8304 -0.0511
vn -0.4508 0.7743 0.4441
vn 0.3611 0.7859 0.5020
vn -0.2961 0.7781 0.5539
vn 0.3261 0.7852 0.5263
vn -0.1319 0.7795 0.6124
vn 0.4734 0.7906 0.3885
vn -0.6701 -0.7286 0.1415
vn -0.0970 0.7805 0.6175
vn 0.5658 0.7910 0.2329
vn -0.5120 -0.7946 0.3262
vn 0.5648 0.7909 0.2354
vn -0.3693 -0.7949 0.4815
vn 0.5570 0.8284 0.0585
vn -0.2209 -0.7909 0.5708
vn -0.2062 -0.7925 0.5740
vn -0.0295 -0.7899 0.6126
vn 0.6741 0.7248 -0.1426
vn 0.0602 -0.7889 0.6116
vn 0.5152 0.7913 -0.3293
vn 0.1791 -0.7870 0.5904
vn 0.3721 0.7915 -0.4848
vn 0.2501 -0.7849 0.5669
vn -0.3870 0.0000 -0.9221
usemtl Material.001
s off
f 2/1/1 1/2/1 32/3/1 31/4/1 30/5/1 29/6/1 28/7/1 27/8/1 26/9/1 25/10/1 24/11/1 23/12/1 22/13/1 21/14/1 20/15/1 19/16/1 18/17/1 17/18/1 16/19/1 15/20/1 14/21/1 13/22/1 12/23/1 11/24/1 127/25/1 10/26/1 9/27/1 8/28/1 7/29/1 6/30/1 5/31/1 4/32/1 3/33/1
f 34/34/2 35/35/2 36/36/2 37/37/2 38/38/2 39/39/2 40/40/2 41/41/2 42/42/2 128/43/2 43/44/2 44/45/2 45/46/2 46/47/2 47/48/2 48/49/2 49/50/2 50/51/2 51/52/2 52/53/2 53/54/2 54/55/2 55/56/2 56/57/2 57/58/2 58/59/2 59/60/2 60/61/2 61/62/2 62/63/2 63/64/2 64/65/2 33/66/2
f 31/4/3 32/3/3 95/67/3 94/68/3
f 58/59/4 57/58/4 119/69/4 120/70/4
f 4/32/5 5/31/5 69/71/5 68/72/5
f 30/5/6 31/4/6 94/68/6 93/73/6
f 57/58/7 56/57/7 118/74/7 119/69/7
f 43/75/8 11/76/8 74/77/8 105/78/8
f 3/33/9 4/32/9 68/72/9 67/79/9
f 29/6/10 30/5/10 93/73/10 92/80/10
f 56/57/11 55/56/11 117/81/11 118/74/11
f 2/1/12 3/33/12 67/79/12 66/82/12
f 28/7/13 29/6/13 92/80/13 91/83/13
f 55/56/14 54/55/14 116/84/14 117/81/14
f 9/85/15 10/86/15 42/87/15 41/88/15
f 1/2/16 2/1/16 66/82/16 65/89/16
f 127/90/17 11/76/17 43/75/17 128/91/17
f 27/8/18 28/7/18 91/83/18 90/92/18
f 54/55/19 53/54/19 115/93/19 116/84/19
f 26/9/20 27/8/20 90/92/20 89/94/20
f 53/54/21 52/53/21 114/95/21 115/93/21
f 9/85/22 41/88/22 104/96/22 73/97/22
f 25/10/23 26/9/23 89/94/23 88/98/23
f 52/53/24 51/52/24 113/99/24 114/95/24
f 24/11/25 25/10/25 88/98/25 87/100/25
f 51/52/26 50/51/26 112/101/26 113/99/26
f 23/12/27 24/11/27 87/100/27 86/102/27
f 50/51/28 49/50/28 111/103/28 112/101/28
f 22/13/29 23/12/29 86/102/29 85/104/29
f 49/50/30 48/49/30 110/105/30 111/103/30
f 21/14/31 22/13/31 85/104/31 84/106/31
f 48/49/32 47/48/32 109/107/32 110/105/32
f 20/15/33 21/14/33 84/106/33 83/108/33
f 47/48/34 46/47/34 108/109/34 109/107/34
f 68/110/35 69/111/35 100/112/35 99/113/35
f 94/114/36 95/115/36 126/116/36 125/117/36
f 81/118/37 82/119/37 113/120/37 112/121/37
f 69/111/38 70/122/38 101/123/38 100/112/38
f 95/115/39 65/124/39 96/125/39 126/116/39
f 82/119/40 83/126/40 114/127/40 113/120/40
f 70/122/41 71/128/41 102/129/41 101/123/41
f 83/126/42 84/130/42 115/131/42 114/127/42
f 71/128/43 72/132/43 103/133/43 102/129/43
f 84/130/44 85/134/44 116/135/44 115/131/44
f 72/132/45 73/136/45 104/137/45 103/133/45
f 85/134/46 86/138/46 117/139/46 116/135/46
f 86/138/47 87/140/47 118/141/47 117/139/47
f 87/140/48 88/142/48 119/143/48 118/141/48
f 74/144/49 75/145/49 106/146/49 105/147/49
f 88/148/50 89/149/50 120/150/50 119/151/50
f 75/145/51 76/152/51 107/153/51 106/146/51
f 89/149/52 90/154/52 121/155/52 120/150/52
f 76/152/53 77/156/53 108/157/53 107/153/53
f 90/154/54 91/158/54 122/159/54 121/155/54
f 77/156/55 78/160/55 109/161/55 108/157/55
f 65/162/56 66/163/56 97/164/56 96/165/56
f 91/158/57 92/166/57 123/167/57 122/159/57
f 78/160/58 79/168/58 110/169/58 109/161/58
f 66/163/59 67/170/59 98/171/59 97/164/59
f 92/166/60 93/172/60 124/173/60 123/167/60
f 79/168/61 80/174/61 111/175/61 110/169/61
f 67/170/62 68/110/62 99/113/62 98/171/62
f 93/172/63 94/114/63 125/117/63 124/173/63
f 80/174/64 81/176/64 112/177/64 111/175/64
f 5/31/65 6/30/65 70/178/65 69/71/65
f 59/60/66 58/59/66 120/70/66 121/179/66
f 32/3/67 1/2/67 65/89/67 95/67/67
f 6/30/68 7/29/68 71/180/68 70/178/68
f 60/61/69 59/60/69 121/179/69 122/181/69
f 34/34/70 33/66/70 96/182/70 97/183/70
f 7/29/71 8/28/71 72/184/71 71/180/71
f 61/62/72 60/61/72 122/181/72 123/185/72
f 35/35/73 34/34/73 97/183/73 98/186/73
f 8/28/74 9/27/74 73/187/74 72/184/74
f 62/63/75 61/62/75 123/185/75 124/188/75
f 36/36/76 35/35/76 98/186/76 99/189/76
f 63/64/77 62/63/77 124/188/77 125/190/77
f 37/37/78 36/36/78 99/189/78 100/191/78
f 64/65/79 63/64/79 125/190/79 126/192/79
f 38/38/80 37/37/80 100/191/80 101/193/80
f 11/24/81 12/23/81 75/194/81 74/195/81
f 33/66/82 64/65/82 126/192/82 96/182/82
f 39/39/83 38/38/83 101/193/83 102/196/83
f 12/23/84 13/22/84 76/197/84 75/194/84
f 40/40/85 39/39/85 102/196/85 103/198/85
f 13/22/86 14/21/86 77/199/86 76/197/86
f 41/41/87 40/40/87 103/198/87 104/200/87
f 14/21/88 15/20/88 78/201/88 77/199/88
f 15/20/89 16/19/89 79/202/89 78/201/89
f 16/19/90 17/18/90 80/203/90 79/202/90
f 44/45/91 43/44/91 105/204/91 106/205/91
f 17/18/92 18/17/92 81/206/92 80/203/92
f 45/46/93 44/45/93 106/205/93 107/207/93
f 18/17/94 19/16/94 82/208/94 81/206/94
f 46/47/95 45/46/95 107/207/95 108/109/95
f 19/16/96 20/15/96 83/108/96 82/208/96
f 10/209/97 127/90/97 128/91/97 42/210/97
